<svg xmlns="http://www.w3.org/2000/svg" xmlns:xlink="http://www.w3.org/1999/xlink" width="500" zoomAndPan="magnify" viewBox="0 0 375 374.999991" height="500" preserveAspectRatio="xMidYMid meet" version="1.0"><defs><clipPath id="8f62aaacb6"><path d="M 189 112.5 L 262.5 112.5 L 262.5 186 L 189 186 Z M 189 112.5 " clip-rule="nonzero"/></clipPath><clipPath id="2bec101214"><path d="M 112.5 119 L 178 119 L 178 186 L 112.5 186 Z M 112.5 119 " clip-rule="nonzero"/></clipPath><clipPath id="1724921390"><path d="M 189 196 L 255 196 L 255 262.5 L 189 262.5 Z M 189 196 " clip-rule="nonzero"/></clipPath><clipPath id="bff01d0431"><path d="M 112.5 196 L 178 196 L 178 262.5 L 112.5 262.5 Z M 112.5 196 " clip-rule="nonzero"/></clipPath></defs><rect x="-37.5" width="450" fill="#ffffff" y="-37.499999" height="449.999989" fill-opacity="1"/><rect x="-37.5" width="450" fill="#ffffff" y="-37.499999" height="449.999989" fill-opacity="1"/><g clip-path="url(#8f62aaacb6)"><path fill="#5e17eb" d="M 240.960938 185.191406 L 210.191406 185.191406 C 209.5 185.191406 208.808594 185.160156 208.117188 185.089844 C 207.429688 185.023438 206.746094 184.921875 206.066406 184.785156 C 205.386719 184.652344 204.714844 184.484375 204.050781 184.28125 C 203.390625 184.082031 202.738281 183.847656 202.097656 183.582031 C 201.457031 183.316406 200.832031 183.019531 200.21875 182.695312 C 199.609375 182.367188 199.015625 182.011719 198.441406 181.628906 C 197.863281 181.242188 197.308594 180.832031 196.773438 180.390625 C 196.238281 179.949219 195.722656 179.488281 195.234375 178.996094 C 194.746094 178.507812 194.28125 177.992188 193.839844 177.457031 C 193.402344 176.921875 192.988281 176.367188 192.601562 175.789062 C 192.21875 175.214844 191.863281 174.621094 191.535156 174.011719 C 191.210938 173.398438 190.914062 172.773438 190.648438 172.132812 C 190.382812 171.492188 190.152344 170.84375 189.949219 170.179688 C 189.75 169.515625 189.582031 168.84375 189.445312 168.164062 C 189.308594 167.484375 189.207031 166.800781 189.140625 166.113281 C 189.074219 165.421875 189.039062 164.730469 189.039062 164.039062 L 189.039062 133.269531 C 189.039062 132.578125 189.074219 131.886719 189.140625 131.195312 C 189.207031 130.507812 189.308594 129.820312 189.445312 129.140625 C 189.582031 128.460938 189.75 127.792969 189.949219 127.128906 C 190.152344 126.464844 190.382812 125.8125 190.648438 125.175781 C 190.914062 124.535156 191.210938 123.910156 191.535156 123.296875 C 191.863281 122.6875 192.21875 122.09375 192.601562 121.515625 C 192.988281 120.941406 193.402344 120.386719 193.839844 119.847656 C 194.28125 119.3125 194.746094 118.800781 195.234375 118.3125 C 195.722656 117.820312 196.238281 117.355469 196.773438 116.917969 C 197.308594 116.476562 197.863281 116.066406 198.441406 115.679688 C 199.015625 115.296875 199.609375 114.941406 200.21875 114.613281 C 200.832031 114.285156 201.457031 113.992188 202.097656 113.726562 C 202.738281 113.460938 203.390625 113.226562 204.050781 113.027344 C 204.714844 112.824219 205.386719 112.65625 206.066406 112.523438 C 206.746094 112.386719 207.429688 112.285156 208.117188 112.21875 C 208.808594 112.148438 209.5 112.117188 210.191406 112.117188 L 240.960938 112.117188 C 241.65625 112.117188 242.34375 112.148438 243.035156 112.21875 C 243.722656 112.285156 244.410156 112.386719 245.089844 112.523438 C 245.769531 112.65625 246.4375 112.824219 247.101562 113.027344 C 247.765625 113.226562 248.417969 113.460938 249.058594 113.726562 C 249.695312 113.992188 250.324219 114.285156 250.933594 114.613281 C 251.542969 114.941406 252.136719 115.296875 252.714844 115.679688 C 253.289062 116.066406 253.847656 116.476562 254.382812 116.917969 C 254.917969 117.355469 255.429688 117.820312 255.917969 118.3125 C 256.410156 118.800781 256.875 119.3125 257.3125 119.847656 C 257.753906 120.386719 258.164062 120.941406 258.550781 121.515625 C 258.933594 122.09375 259.289062 122.6875 259.617188 123.296875 C 259.945312 123.910156 260.238281 124.535156 260.503906 125.175781 C 260.769531 125.8125 261.003906 126.464844 261.203125 127.128906 C 261.40625 127.792969 261.574219 128.460938 261.707031 129.140625 C 261.84375 129.820312 261.945312 130.507812 262.011719 131.195312 C 262.082031 131.886719 262.117188 132.578125 262.117188 133.269531 L 262.117188 164.039062 C 262.117188 164.730469 262.082031 165.421875 262.011719 166.113281 C 261.945312 166.800781 261.84375 167.484375 261.707031 168.164062 C 261.574219 168.84375 261.40625 169.515625 261.203125 170.179688 C 261.003906 170.84375 260.769531 171.492188 260.503906 172.132812 C 260.238281 172.773438 259.945312 173.398438 259.617188 174.011719 C 259.289062 174.621094 258.933594 175.214844 258.550781 175.789062 C 258.164062 176.367188 257.753906 176.921875 257.3125 177.457031 C 256.875 177.992188 256.410156 178.507812 255.917969 178.996094 C 255.429688 179.488281 254.917969 179.949219 254.382812 180.390625 C 253.847656 180.832031 253.289062 181.242188 252.714844 181.628906 C 252.136719 182.011719 251.542969 182.367188 250.933594 182.695312 C 250.324219 183.019531 249.695312 183.316406 249.058594 183.582031 C 248.417969 183.847656 247.765625 184.082031 247.101562 184.28125 C 246.4375 184.484375 245.769531 184.652344 245.089844 184.785156 C 244.410156 184.921875 243.722656 185.023438 243.035156 185.089844 C 242.34375 185.160156 241.65625 185.191406 240.960938 185.191406 Z M 210.191406 123.652344 C 209.5625 123.652344 208.9375 123.714844 208.316406 123.839844 C 207.695312 123.960938 207.097656 124.144531 206.511719 124.386719 C 205.929688 124.628906 205.375 124.921875 204.851562 125.273438 C 204.324219 125.625 203.839844 126.023438 203.394531 126.46875 C 202.945312 126.917969 202.546875 127.402344 202.199219 127.925781 C 201.847656 128.453125 201.550781 129.007812 201.308594 129.589844 C 201.066406 130.171875 200.886719 130.773438 200.761719 131.394531 C 200.636719 132.011719 200.578125 132.636719 200.578125 133.269531 L 200.578125 164.039062 C 200.578125 164.667969 200.636719 165.296875 200.761719 165.914062 C 200.886719 166.535156 201.066406 167.136719 201.308594 167.71875 C 201.550781 168.300781 201.847656 168.855469 202.199219 169.378906 C 202.546875 169.90625 202.945312 170.390625 203.394531 170.835938 C 203.839844 171.285156 204.324219 171.683594 204.851562 172.035156 C 205.375 172.382812 205.929688 172.679688 206.511719 172.921875 C 207.097656 173.164062 207.695312 173.347656 208.316406 173.46875 C 208.9375 173.59375 209.5625 173.652344 210.191406 173.652344 L 240.960938 173.652344 C 241.59375 173.652344 242.21875 173.59375 242.835938 173.46875 C 243.457031 173.347656 244.058594 173.164062 244.640625 172.921875 C 245.222656 172.679688 245.777344 172.382812 246.304688 172.035156 C 246.828125 171.683594 247.3125 171.285156 247.761719 170.835938 C 248.207031 170.390625 248.605469 169.90625 248.957031 169.378906 C 249.308594 168.855469 249.601562 168.300781 249.84375 167.71875 C 250.085938 167.136719 250.269531 166.535156 250.390625 165.914062 C 250.515625 165.296875 250.578125 164.667969 250.578125 164.039062 L 250.578125 133.269531 C 250.578125 132.636719 250.515625 132.011719 250.390625 131.394531 C 250.269531 130.773438 250.085938 130.171875 249.84375 129.589844 C 249.601562 129.007812 249.308594 128.453125 248.957031 127.925781 C 248.605469 127.402344 248.207031 126.917969 247.761719 126.46875 C 247.3125 126.023438 246.828125 125.625 246.304688 125.273438 C 245.777344 124.921875 245.222656 124.628906 244.640625 124.386719 C 244.058594 124.144531 243.457031 123.960938 242.835938 123.839844 C 242.21875 123.714844 241.59375 123.652344 240.960938 123.652344 Z M 210.191406 123.652344 " fill-opacity="1" fill-rule="nonzero"/></g><g clip-path="url(#2bec101214)"><path fill="#5e17eb" d="M 156.347656 185.191406 L 133.269531 185.191406 C 132.578125 185.191406 131.886719 185.160156 131.195312 185.089844 C 130.507812 185.023438 129.820312 184.921875 129.140625 184.785156 C 128.460938 184.652344 127.792969 184.484375 127.128906 184.28125 C 126.464844 184.082031 125.8125 183.847656 125.175781 183.582031 C 124.535156 183.316406 123.910156 183.019531 123.296875 182.695312 C 122.6875 182.367188 122.09375 182.011719 121.515625 181.628906 C 120.941406 181.242188 120.386719 180.832031 119.847656 180.390625 C 119.3125 179.949219 118.800781 179.488281 118.3125 178.996094 C 117.820312 178.507812 117.355469 177.992188 116.917969 177.457031 C 116.476562 176.921875 116.066406 176.367188 115.679688 175.789062 C 115.296875 175.214844 114.941406 174.621094 114.613281 174.011719 C 114.285156 173.398438 113.992188 172.773438 113.726562 172.132812 C 113.460938 171.492188 113.226562 170.84375 113.027344 170.179688 C 112.824219 169.515625 112.65625 168.84375 112.523438 168.164062 C 112.386719 167.484375 112.285156 166.800781 112.21875 166.113281 C 112.148438 165.421875 112.117188 164.730469 112.117188 164.039062 L 112.117188 140.960938 C 112.117188 140.269531 112.148438 139.578125 112.21875 138.886719 C 112.285156 138.199219 112.386719 137.515625 112.523438 136.835938 C 112.65625 136.15625 112.824219 135.484375 113.027344 134.820312 C 113.226562 134.15625 113.460938 133.507812 113.726562 132.867188 C 113.992188 132.226562 114.285156 131.601562 114.613281 130.988281 C 114.941406 130.378906 115.296875 129.785156 115.679688 129.210938 C 116.066406 128.632812 116.476562 128.078125 116.917969 127.542969 C 117.355469 127.007812 117.820312 126.492188 118.3125 126.003906 C 118.800781 125.511719 119.3125 125.050781 119.847656 124.609375 C 120.386719 124.167969 120.941406 123.757812 121.515625 123.371094 C 122.09375 122.988281 122.6875 122.632812 123.296875 122.304688 C 123.910156 121.980469 124.535156 121.683594 125.175781 121.417969 C 125.8125 121.152344 126.464844 120.917969 127.128906 120.71875 C 127.792969 120.515625 128.460938 120.347656 129.140625 120.214844 C 129.820312 120.078125 130.507812 119.976562 131.195312 119.910156 C 131.886719 119.839844 132.578125 119.808594 133.269531 119.808594 L 156.347656 119.808594 C 157.039062 119.808594 157.730469 119.839844 158.417969 119.910156 C 159.109375 119.976562 159.792969 120.078125 160.472656 120.214844 C 161.152344 120.347656 161.824219 120.515625 162.488281 120.71875 C 163.148438 120.917969 163.800781 121.152344 164.441406 121.417969 C 165.082031 121.683594 165.707031 121.980469 166.316406 122.304688 C 166.929688 122.632812 167.523438 122.988281 168.097656 123.371094 C 168.675781 123.757812 169.230469 124.167969 169.765625 124.609375 C 170.300781 125.050781 170.8125 125.511719 171.304688 126.003906 C 171.792969 126.492188 172.257812 127.007812 172.699219 127.542969 C 173.136719 128.078125 173.550781 128.632812 173.933594 129.210938 C 174.320312 129.785156 174.675781 130.378906 175.003906 130.988281 C 175.328125 131.601562 175.625 132.226562 175.890625 132.867188 C 176.15625 133.507812 176.386719 134.15625 176.589844 134.820312 C 176.789062 135.484375 176.957031 136.15625 177.09375 136.835938 C 177.230469 137.515625 177.332031 138.199219 177.398438 138.886719 C 177.464844 139.578125 177.5 140.269531 177.5 140.960938 L 177.5 164.039062 C 177.5 164.730469 177.464844 165.421875 177.398438 166.113281 C 177.332031 166.800781 177.230469 167.484375 177.09375 168.164062 C 176.957031 168.84375 176.789062 169.515625 176.589844 170.179688 C 176.386719 170.84375 176.15625 171.492188 175.890625 172.132812 C 175.625 172.773438 175.328125 173.398438 175.003906 174.011719 C 174.675781 174.621094 174.320312 175.214844 173.933594 175.789062 C 173.550781 176.367188 173.136719 176.921875 172.699219 177.457031 C 172.257812 177.992188 171.792969 178.507812 171.304688 178.996094 C 170.8125 179.488281 170.300781 179.949219 169.765625 180.390625 C 169.230469 180.832031 168.675781 181.242188 168.097656 181.628906 C 167.523438 182.011719 166.929688 182.367188 166.316406 182.695312 C 165.707031 183.019531 165.082031 183.316406 164.441406 183.582031 C 163.800781 183.847656 163.148438 184.082031 162.488281 184.28125 C 161.824219 184.484375 161.152344 184.652344 160.472656 184.785156 C 159.792969 184.921875 159.109375 185.023438 158.417969 185.089844 C 157.730469 185.160156 157.039062 185.191406 156.347656 185.191406 Z M 133.269531 131.347656 C 132.636719 131.347656 132.011719 131.40625 131.394531 131.53125 C 130.773438 131.652344 130.171875 131.835938 129.589844 132.078125 C 129.007812 132.320312 128.453125 132.617188 127.925781 132.964844 C 127.402344 133.316406 126.917969 133.714844 126.46875 134.164062 C 126.023438 134.609375 125.625 135.09375 125.273438 135.621094 C 124.921875 136.144531 124.628906 136.699219 124.386719 137.28125 C 124.144531 137.863281 123.960938 138.464844 123.839844 139.085938 C 123.714844 139.703125 123.652344 140.332031 123.652344 140.960938 L 123.652344 164.039062 C 123.652344 164.667969 123.714844 165.296875 123.839844 165.914062 C 123.960938 166.535156 124.144531 167.136719 124.386719 167.71875 C 124.628906 168.300781 124.921875 168.855469 125.273438 169.378906 C 125.625 169.90625 126.023438 170.390625 126.46875 170.835938 C 126.917969 171.285156 127.402344 171.683594 127.925781 172.035156 C 128.453125 172.382812 129.007812 172.679688 129.589844 172.921875 C 130.171875 173.164062 130.773438 173.347656 131.394531 173.46875 C 132.011719 173.59375 132.636719 173.652344 133.269531 173.652344 L 156.347656 173.652344 C 156.976562 173.652344 157.601562 173.59375 158.222656 173.46875 C 158.839844 173.347656 159.441406 173.164062 160.027344 172.921875 C 160.609375 172.679688 161.164062 172.382812 161.6875 172.035156 C 162.214844 171.683594 162.699219 171.285156 163.144531 170.835938 C 163.589844 170.390625 163.992188 169.90625 164.339844 169.378906 C 164.691406 168.855469 164.988281 168.300781 165.230469 167.71875 C 165.472656 167.136719 165.652344 166.535156 165.777344 165.914062 C 165.898438 165.296875 165.960938 164.667969 165.960938 164.039062 L 165.960938 140.960938 C 165.960938 140.332031 165.898438 139.703125 165.777344 139.085938 C 165.652344 138.464844 165.472656 137.863281 165.230469 137.28125 C 164.988281 136.699219 164.691406 136.144531 164.339844 135.621094 C 163.992188 135.09375 163.589844 134.609375 163.144531 134.164062 C 162.699219 133.714844 162.214844 133.316406 161.6875 132.964844 C 161.164062 132.617188 160.609375 132.320312 160.027344 132.078125 C 159.441406 131.835938 158.839844 131.652344 158.222656 131.53125 C 157.601562 131.40625 156.976562 131.347656 156.347656 131.347656 Z M 133.269531 131.347656 " fill-opacity="1" fill-rule="nonzero"/></g><g clip-path="url(#1724921390)"><path fill="#5e17eb" d="M 233.269531 262.117188 L 210.191406 262.117188 C 209.5 262.117188 208.808594 262.082031 208.117188 262.011719 C 207.429688 261.945312 206.746094 261.84375 206.066406 261.707031 C 205.386719 261.574219 204.714844 261.40625 204.050781 261.203125 C 203.390625 261.003906 202.738281 260.769531 202.097656 260.503906 C 201.457031 260.238281 200.832031 259.945312 200.21875 259.617188 C 199.609375 259.289062 199.015625 258.933594 198.441406 258.550781 C 197.863281 258.164062 197.308594 257.753906 196.773438 257.3125 C 196.238281 256.875 195.722656 256.410156 195.234375 255.917969 C 194.746094 255.429688 194.28125 254.917969 193.839844 254.382812 C 193.402344 253.847656 192.988281 253.289062 192.601562 252.714844 C 192.21875 252.136719 191.863281 251.542969 191.535156 250.933594 C 191.210938 250.324219 190.914062 249.695312 190.648438 249.058594 C 190.382812 248.417969 190.152344 247.765625 189.949219 247.101562 C 189.75 246.4375 189.582031 245.769531 189.445312 245.089844 C 189.308594 244.410156 189.207031 243.722656 189.140625 243.035156 C 189.074219 242.34375 189.039062 241.65625 189.039062 240.960938 L 189.039062 217.882812 C 189.039062 217.191406 189.074219 216.5 189.140625 215.8125 C 189.207031 215.121094 189.308594 214.4375 189.445312 213.757812 C 189.582031 213.078125 189.75 212.40625 189.949219 211.742188 C 190.152344 211.082031 190.382812 210.429688 190.648438 209.789062 C 190.914062 209.148438 191.210938 208.523438 191.535156 207.914062 C 191.863281 207.300781 192.21875 206.707031 192.601562 206.132812 C 192.988281 205.554688 193.402344 205 193.839844 204.464844 C 194.28125 203.929688 194.746094 203.417969 195.234375 202.925781 C 195.722656 202.4375 196.238281 201.972656 196.773438 201.53125 C 197.308594 201.09375 197.863281 200.679688 198.441406 200.296875 C 199.015625 199.910156 199.609375 199.554688 200.21875 199.230469 C 200.832031 198.902344 201.457031 198.605469 202.097656 198.339844 C 202.738281 198.074219 203.390625 197.84375 204.050781 197.640625 C 204.714844 197.441406 205.386719 197.273438 206.066406 197.136719 C 206.746094 197.003906 207.429688 196.902344 208.117188 196.832031 C 208.808594 196.765625 209.5 196.730469 210.191406 196.730469 L 233.269531 196.730469 C 233.960938 196.730469 234.652344 196.765625 235.34375 196.832031 C 236.03125 196.902344 236.714844 197.003906 237.394531 197.136719 C 238.074219 197.273438 238.746094 197.441406 239.410156 197.640625 C 240.074219 197.84375 240.722656 198.074219 241.363281 198.339844 C 242.003906 198.605469 242.628906 198.902344 243.242188 199.230469 C 243.851562 199.554688 244.445312 199.910156 245.023438 200.296875 C 245.597656 200.679688 246.152344 201.09375 246.6875 201.53125 C 247.226562 201.972656 247.738281 202.4375 248.226562 202.925781 C 248.71875 203.417969 249.183594 203.929688 249.621094 204.464844 C 250.0625 205 250.472656 205.554688 250.859375 206.132812 C 251.242188 206.707031 251.597656 207.300781 251.925781 207.914062 C 252.25 208.523438 252.546875 209.148438 252.8125 209.789062 C 253.078125 210.429688 253.3125 211.082031 253.511719 211.742188 C 253.714844 212.40625 253.882812 213.078125 254.015625 213.757812 C 254.152344 214.4375 254.253906 215.121094 254.320312 215.8125 C 254.390625 216.5 254.421875 217.191406 254.421875 217.882812 L 254.421875 240.960938 C 254.421875 241.65625 254.390625 242.34375 254.320312 243.035156 C 254.253906 243.722656 254.152344 244.410156 254.015625 245.089844 C 253.882812 245.769531 253.714844 246.4375 253.511719 247.101562 C 253.3125 247.765625 253.078125 248.417969 252.8125 249.058594 C 252.546875 249.695312 252.25 250.324219 251.925781 250.933594 C 251.597656 251.542969 251.242188 252.136719 250.859375 252.714844 C 250.472656 253.289062 250.0625 253.847656 249.621094 254.382812 C 249.183594 254.917969 248.71875 255.429688 248.226562 255.917969 C 247.738281 256.410156 247.226562 256.875 246.6875 257.3125 C 246.152344 257.753906 245.597656 258.164062 245.023438 258.550781 C 244.445312 258.933594 243.851562 259.289062 243.242188 259.617188 C 242.628906 259.945312 242.003906 260.238281 241.363281 260.503906 C 240.722656 260.769531 240.074219 261.003906 239.410156 261.203125 C 238.746094 261.40625 238.074219 261.574219 237.394531 261.707031 C 236.714844 261.84375 236.03125 261.945312 235.34375 262.011719 C 234.652344 262.082031 233.960938 262.117188 233.269531 262.117188 Z M 210.191406 208.269531 C 209.5625 208.269531 208.9375 208.332031 208.316406 208.453125 C 207.695312 208.578125 207.097656 208.757812 206.511719 209 C 205.929688 209.242188 205.375 209.539062 204.851562 209.890625 C 204.324219 210.242188 203.839844 210.640625 203.394531 211.085938 C 202.945312 211.53125 202.546875 212.019531 202.199219 212.542969 C 201.847656 213.066406 201.550781 213.621094 201.308594 214.203125 C 201.066406 214.789062 200.886719 215.390625 200.761719 216.007812 C 200.636719 216.628906 200.578125 217.253906 200.578125 217.882812 L 200.578125 240.960938 C 200.578125 241.59375 200.636719 242.21875 200.761719 242.835938 C 200.886719 243.457031 201.066406 244.058594 201.308594 244.640625 C 201.550781 245.222656 201.847656 245.777344 202.199219 246.304688 C 202.546875 246.828125 202.945312 247.3125 203.394531 247.761719 C 203.839844 248.207031 204.324219 248.605469 204.851562 248.957031 C 205.375 249.308594 205.929688 249.601562 206.511719 249.84375 C 207.097656 250.085938 207.695312 250.269531 208.316406 250.390625 C 208.9375 250.515625 209.5625 250.578125 210.191406 250.578125 L 233.269531 250.578125 C 233.902344 250.578125 234.527344 250.515625 235.144531 250.390625 C 235.765625 250.269531 236.367188 250.085938 236.949219 249.84375 C 237.53125 249.601562 238.085938 249.308594 238.609375 248.957031 C 239.136719 248.605469 239.621094 248.207031 240.066406 247.761719 C 240.515625 247.3125 240.914062 246.828125 241.265625 246.304688 C 241.613281 245.777344 241.910156 245.222656 242.152344 244.640625 C 242.394531 244.058594 242.578125 243.457031 242.699219 242.835938 C 242.824219 242.21875 242.882812 241.59375 242.882812 240.960938 L 242.882812 217.882812 C 242.882812 217.253906 242.824219 216.628906 242.699219 216.007812 C 242.578125 215.390625 242.394531 214.789062 242.152344 214.203125 C 241.910156 213.621094 241.613281 213.066406 241.265625 212.542969 C 240.914062 212.019531 240.515625 211.53125 240.066406 211.085938 C 239.621094 210.640625 239.136719 210.242188 238.609375 209.890625 C 238.085938 209.539062 237.53125 209.242188 236.949219 209 C 236.367188 208.757812 235.765625 208.578125 235.144531 208.453125 C 234.527344 208.332031 233.902344 208.269531 233.269531 208.269531 Z M 210.191406 208.269531 " fill-opacity="1" fill-rule="nonzero"/></g><g clip-path="url(#bff01d0431)"><path fill="#5e17eb" d="M 156.347656 262.117188 L 133.269531 262.117188 C 132.578125 262.117188 131.886719 262.082031 131.195312 262.011719 C 130.507812 261.945312 129.820312 261.84375 129.140625 261.707031 C 128.460938 261.574219 127.792969 261.40625 127.128906 261.203125 C 126.464844 261.003906 125.8125 260.769531 125.175781 260.503906 C 124.535156 260.238281 123.910156 259.945312 123.296875 259.617188 C 122.6875 259.289062 122.09375 258.933594 121.515625 258.550781 C 120.941406 258.164062 120.386719 257.753906 119.847656 257.3125 C 119.3125 256.875 118.800781 256.410156 118.3125 255.917969 C 117.820312 255.429688 117.355469 254.917969 116.917969 254.382812 C 116.476562 253.847656 116.066406 253.289062 115.679688 252.714844 C 115.296875 252.136719 114.941406 251.542969 114.613281 250.933594 C 114.285156 250.324219 113.992188 249.695312 113.726562 249.058594 C 113.460938 248.417969 113.226562 247.765625 113.027344 247.101562 C 112.824219 246.4375 112.65625 245.769531 112.523438 245.089844 C 112.386719 244.410156 112.285156 243.722656 112.21875 243.035156 C 112.148438 242.34375 112.117188 241.65625 112.117188 240.960938 L 112.117188 217.882812 C 112.117188 217.191406 112.148438 216.5 112.21875 215.8125 C 112.285156 215.121094 112.386719 214.4375 112.523438 213.757812 C 112.65625 213.078125 112.824219 212.40625 113.027344 211.742188 C 113.226562 211.082031 113.460938 210.429688 113.726562 209.789062 C 113.992188 209.148438 114.285156 208.523438 114.613281 207.914062 C 114.941406 207.300781 115.296875 206.707031 115.679688 206.132812 C 116.066406 205.554688 116.476562 205 116.917969 204.464844 C 117.355469 203.929688 117.820312 203.417969 118.3125 202.925781 C 118.800781 202.4375 119.3125 201.972656 119.847656 201.53125 C 120.386719 201.09375 120.941406 200.679688 121.515625 200.296875 C 122.09375 199.910156 122.6875 199.554688 123.296875 199.230469 C 123.910156 198.902344 124.535156 198.605469 125.175781 198.339844 C 125.8125 198.074219 126.464844 197.84375 127.128906 197.640625 C 127.792969 197.441406 128.460938 197.273438 129.140625 197.136719 C 129.820312 197.003906 130.507812 196.902344 131.195312 196.832031 C 131.886719 196.765625 132.578125 196.730469 133.269531 196.730469 L 156.347656 196.730469 C 157.039062 196.730469 157.730469 196.765625 158.417969 196.832031 C 159.109375 196.902344 159.792969 197.003906 160.472656 197.136719 C 161.152344 197.273438 161.824219 197.441406 162.488281 197.640625 C 163.148438 197.84375 163.800781 198.074219 164.441406 198.339844 C 165.082031 198.605469 165.707031 198.902344 166.316406 199.230469 C 166.929688 199.554688 167.523438 199.910156 168.097656 200.296875 C 168.675781 200.679688 169.230469 201.09375 169.765625 201.53125 C 170.300781 201.972656 170.8125 202.4375 171.304688 202.925781 C 171.792969 203.417969 172.257812 203.929688 172.699219 204.464844 C 173.136719 205 173.550781 205.554688 173.933594 206.132812 C 174.320312 206.707031 174.675781 207.300781 175.003906 207.914062 C 175.328125 208.523438 175.625 209.148438 175.890625 209.789062 C 176.15625 210.429688 176.386719 211.082031 176.589844 211.742188 C 176.789062 212.40625 176.957031 213.078125 177.09375 213.757812 C 177.230469 214.4375 177.332031 215.121094 177.398438 215.8125 C 177.464844 216.5 177.5 217.191406 177.5 217.882812 L 177.5 240.960938 C 177.5 241.65625 177.464844 242.34375 177.398438 243.035156 C 177.332031 243.722656 177.230469 244.410156 177.09375 245.089844 C 176.957031 245.769531 176.789062 246.4375 176.589844 247.101562 C 176.386719 247.765625 176.15625 248.417969 175.890625 249.058594 C 175.625 249.695312 175.328125 250.324219 175.003906 250.933594 C 174.675781 251.542969 174.320312 252.136719 173.933594 252.714844 C 173.550781 253.289062 173.136719 253.847656 172.699219 254.382812 C 172.257812 254.917969 171.792969 255.429688 171.304688 255.917969 C 170.8125 256.410156 170.300781 256.875 169.765625 257.3125 C 169.230469 257.753906 168.675781 258.164062 168.097656 258.550781 C 167.523438 258.933594 166.929688 259.289062 166.316406 259.617188 C 165.707031 259.945312 165.082031 260.238281 164.441406 260.503906 C 163.800781 260.769531 163.148438 261.003906 162.488281 261.203125 C 161.824219 261.40625 161.152344 261.574219 160.472656 261.707031 C 159.792969 261.84375 159.109375 261.945312 158.417969 262.011719 C 157.730469 262.082031 157.039062 262.117188 156.347656 262.117188 Z M 133.269531 208.269531 C 132.636719 208.269531 132.011719 208.332031 131.394531 208.453125 C 130.773438 208.578125 130.171875 208.757812 129.589844 209 C 129.007812 209.242188 128.453125 209.539062 127.925781 209.890625 C 127.402344 210.242188 126.917969 210.640625 126.46875 211.085938 C 126.023438 211.53125 125.625 212.019531 125.273438 212.542969 C 124.921875 213.066406 124.628906 213.621094 124.386719 214.203125 C 124.144531 214.789062 123.960938 215.390625 123.839844 216.007812 C 123.714844 216.628906 123.652344 217.253906 123.652344 217.882812 L 123.652344 240.960938 C 123.652344 241.59375 123.714844 242.21875 123.839844 242.835938 C 123.960938 243.457031 124.144531 244.058594 124.386719 244.640625 C 124.628906 245.222656 124.921875 245.777344 125.273438 246.304688 C 125.625 246.828125 126.023438 247.3125 126.46875 247.761719 C 126.917969 248.207031 127.402344 248.605469 127.925781 248.957031 C 128.453125 249.308594 129.007812 249.601562 129.589844 249.84375 C 130.171875 250.085938 130.773438 250.269531 131.394531 250.390625 C 132.011719 250.515625 132.636719 250.578125 133.269531 250.578125 L 156.347656 250.578125 C 156.976562 250.578125 157.601562 250.515625 158.222656 250.390625 C 158.839844 250.269531 159.441406 250.085938 160.027344 249.84375 C 160.609375 249.601562 161.164062 249.308594 161.6875 248.957031 C 162.214844 248.605469 162.699219 248.207031 163.144531 247.761719 C 163.589844 247.3125 163.992188 246.828125 164.339844 246.304688 C 164.691406 245.777344 164.988281 245.222656 165.230469 244.640625 C 165.472656 244.058594 165.652344 243.457031 165.777344 242.835938 C 165.898438 242.21875 165.960938 241.59375 165.960938 240.960938 L 165.960938 217.882812 C 165.960938 217.253906 165.898438 216.628906 165.777344 216.007812 C 165.652344 215.390625 165.472656 214.789062 165.230469 214.203125 C 164.988281 213.621094 164.691406 213.066406 164.339844 212.542969 C 163.992188 212.019531 163.589844 211.53125 163.144531 211.085938 C 162.699219 210.640625 162.214844 210.242188 161.6875 209.890625 C 161.164062 209.539062 160.609375 209.242188 160.027344 209 C 159.441406 208.757812 158.839844 208.578125 158.222656 208.453125 C 157.601562 208.332031 156.976562 208.269531 156.347656 208.269531 Z M 133.269531 208.269531 " fill-opacity="1" fill-rule="nonzero"/></g></svg>